<svg aria-hidden="true" style="position:absolute;width:0;height:0;overflow:hidden" xmlns="http://www.w3.org/2000/svg">
  <defs>
    <symbol id="icon-email" viewBox="0 0 40 32">
      <path d="M39.632 10.868c-1.816 1.421-4.105 3.158-12.158 9-1.579 1.184-4.5 3.789-7.263 3.789-2.842 0-5.684-2.605-7.342-3.789-8.053-5.842-10.342-7.579-12.158-9-.316-.237-.711 0-.711.395v16.105c0 2.132 1.658 3.789 3.789 3.789h32.842c2.053 0 3.789-1.658 3.789-3.789V11.263c0-.395-.474-.632-.79-.395zM20.211 21.053c1.816.079 4.421-2.29 5.763-3.237 10.5-7.579 11.289-8.289 13.658-10.184.474-.316.79-.868.79-1.5v-1.5c0-2.053-1.737-3.789-3.789-3.789H3.791C1.659.843.002 2.58.002 4.632v1.5c0 .632.237 1.184.711 1.5 2.368 1.895 3.158 2.605 13.658 10.184 1.342.947 3.947 3.316 5.842 3.237z"/>
    </symbol>
    <symbol id="icon-twit" viewBox="0 0 38 32">
      <path d="M34.425 8.2c1.5-1.125 2.85-2.475 3.9-4.05-1.35.6-2.925 1.05-4.5 1.2 1.65-.975 2.85-2.475 3.45-4.35-1.5.9-3.225 1.575-4.95 1.95C30.825 1.375 28.8.475 26.55.475 22.2.475 18.675 4 18.675 8.35c0 .6.075 1.2.225 1.8C12.375 9.775 6.525 6.625 2.625 1.9c-.675 1.125-1.05 2.475-1.05 3.975 0 2.7 1.35 5.1 3.525 6.525-1.275-.075-2.55-.375-3.6-.975v.075c0 3.825 2.7 6.975 6.3 7.725-.6.15-1.35.3-2.025.3-.525 0-.975-.075-1.5-.15.975 3.15 3.9 5.4 7.35 5.475-2.7 2.1-6.075 3.375-9.75 3.375-.675 0-1.275-.075-1.875-.15 3.45 2.25 7.575 3.525 12.075 3.525 14.475 0 22.35-11.925 22.35-22.35V8.2z"/>
    </symbol>
    <symbol id="icon-facebook" viewBox="0 0 32 32">
      <path d="M31.5 16C31.5 7.437 24.563.5 16 .5S.5 7.438.5 16c0 7.75 5.625 14.187 13.063 15.313V20.5H9.625V16h3.938v-3.375c0-3.875 2.312-6.063 5.812-6.063 1.75 0 3.5.313 3.5.313v3.813h-1.937c-1.937 0-2.563 1.188-2.563 2.438v2.875h4.313l-.687 4.5h-3.625v10.813c7.438-1.125 13.125-7.563 13.125-15.313z"/>
    </symbol>
    <symbol id="icon-inst" viewBox="0 0 32 32">
      <path d="M16.727 8.159c-4.364 0-7.841 3.545-7.841 7.841 0 4.364 3.477 7.841 7.841 7.841 4.295 0 7.841-3.477 7.841-7.841 0-4.295-3.545-7.841-7.841-7.841zm0 12.955c-2.795 0-5.114-2.25-5.114-5.114 0-2.795 2.25-5.045 5.114-5.045 2.796 0 5.046 2.25 5.046 5.045 0 2.864-2.25 5.114-5.046 5.114zm9.955-13.228c0-1.023-.818-1.841-1.841-1.841S23 6.863 23 7.886c0 1.023.818 1.841 1.841 1.841s1.841-.818 1.841-1.841zm5.182 1.841c-.136-2.455-.682-4.636-2.454-6.409S25.455 1 23.001.863C20.478.727 12.91.727 10.387.863c-2.455.136-4.568.682-6.409 2.455C2.205 5.091 1.66 7.273 1.523 9.727c-.136 2.523-.136 10.091 0 12.614.136 2.455.682 4.568 2.455 6.409 1.841 1.773 3.955 2.318 6.409 2.455 2.523.136 10.091.136 12.614 0 2.455-.136 4.636-.682 6.409-2.455 1.773-1.841 2.318-3.954 2.454-6.409.136-2.523.136-10.091 0-12.614zM28.591 25c-.477 1.364-1.568 2.386-2.864 2.932-2.046.818-6.818.614-9 .614-2.25 0-7.023.204-9-.614-1.364-.545-2.386-1.568-2.932-2.932-.818-1.977-.614-6.75-.614-9 0-2.182-.205-6.955.614-9 .545-1.295 1.568-2.318 2.932-2.864 1.977-.818 6.75-.614 9-.614 2.182 0 6.954-.205 9 .614 1.295.477 2.318 1.568 2.864 2.864.818 2.045.614 6.818.614 9 0 2.25.205 7.023-.614 9z"/>
    </symbol>
    <symbol id="icon-clok" viewBox="0 0 32 32">
      <path d="M16 .944C7.437.944.5 7.882.5 16.444s6.938 15.5 15.5 15.5c8.563 0 15.5-6.938 15.5-15.5S24.562.944 16 .944zm5.75 19.563L20.5 22.07c-.187.25-.437.438-.812.438-.187 0-.438-.125-.563-.25l-4.188-3.125c-.625-.438-.938-1.125-.938-1.937v-9.75c0-.5.438-1 1-1h2c.5 0 1 .5 1 1v9l3.625 2.687c.187.188.375.438.375.75 0 .25-.125.5-.25.625z"/>
    </symbol>
    <symbol id="icon-Icon-5" viewBox="0 0 33 32">
      <path d="m14.839 2.031-3.724 7.62-8.422 1.203c-1.49.229-2.063 2.063-.974 3.151l6.016 5.901-1.432 8.307c-.229 1.489 1.375 2.635 2.693 1.948l7.505-3.953 7.448 3.953c1.318.687 2.922-.458 2.693-1.948l-1.432-8.307 6.016-5.901c1.089-1.089.516-2.922-.974-3.151l-8.365-1.203-3.781-7.62c-.63-1.318-2.578-1.375-3.266 0z"/>
    </symbol>
    <symbol id="icon-tag" viewBox="0 0 32 32">
      <path d="M0 15.401c0 .77.296 1.48.829 2.013l12.493 12.493c1.125 1.125 2.961 1.125 4.026 0l12.079-12.079c1.125-1.066 1.125-2.901 0-4.026L16.934 1.309c-.533-.533-1.243-.888-2.013-.888H2.842C1.243.421 0 1.724 0 3.263v12.138zm6.632-11.19c1.539 0 2.842 1.303 2.842 2.842 0 1.599-1.303 2.842-2.842 2.842-1.599 0-2.842-1.243-2.842-2.842 0-1.539 1.243-2.842 2.842-2.842z"/>
    </symbol>
    <symbol id="icon-right" viewBox="0 0 20 32">
      <path d="M18.821 17.347c.64-.64.64-1.707 0-2.347L5.024 1.131c-.711-.64-1.778-.64-2.418 0L.97 2.767c-.64.64-.64 1.707 0 2.418l10.953 10.953L.97 27.162c-.64.711-.64 1.778 0 2.418l1.636 1.636c.64.64 1.707.64 2.418 0l13.797-13.869z"/>
    </symbol>
    <symbol id="icon-left" viewBox="0 0 20 32">
      <path d="M.97 15c-.64.64-.64 1.707 0 2.347l13.797 13.869c.711.64 1.778.64 2.418 0l1.636-1.636c.64-.64.64-1.707 0-2.418L7.868 16.138 18.821 5.185c.64-.711.64-1.778 0-2.418l-1.636-1.636c-.64-.64-1.707-.64-2.418 0L.97 15z"/>
    </symbol>
    <symbol id="icon-handbag" viewBox="0 0 27 32">
      <path d="M20.842 9.895V8c0-4.145-3.434-7.579-7.579-7.579C9.059.421 5.684 3.855 5.684 8v1.895H0V26c0 2.664 2.072 4.737 4.737 4.737H21.79c2.605 0 4.737-2.072 4.737-4.737V9.895h-5.684zM9.474 8c0-2.072 1.658-3.789 3.789-3.789 2.072 0 3.789 1.717 3.789 3.789v1.895H9.473V8zm9.473 7.105c-.829 0-1.421-.592-1.421-1.421 0-.77.592-1.421 1.421-1.421.77 0 1.421.651 1.421 1.421 0 .829-.651 1.421-1.421 1.421zm-11.368 0c-.829 0-1.421-.592-1.421-1.421 0-.77.592-1.421 1.421-1.421.77 0 1.421.651 1.421 1.421 0 .829-.651 1.421-1.421 1.421z"/>
    </symbol>
    <symbol id="icon-motorcycle" viewBox="0 0 51 32">
      <path d="M40.533 10.667c-1.05 0-2.175.225-3.15.525l-2.475-4.125h6.225c.975 0 1.8-.75 1.8-1.8v-2.4c0-.975-.825-1.8-1.8-1.8h-3.45c-.525 0-.975.225-1.35.6l-2.775 3.15-1.725-2.85c-.3-.525-.9-.9-1.5-.9h-6c-.675 0-1.2.6-1.2 1.2v1.2c0 .675.525 1.2 1.2 1.2h4.95l1.425 2.4h-11.55c-1.275-1.725-3.3-3-7.425-3h-4.2c-.975 0-1.875.825-1.8 1.875 0 .975.75 1.725 1.8 1.725h4.2c1.8 0 2.85.825 3.525 1.875l-.825 1.575c-.975-.3-2.025-.45-3.075-.375-5.1.15-9.15 4.275-9.225 9.3-.15 5.475 4.2 9.825 9.6 9.825 4.425 0 8.175-3 9.3-7.2h6.3c.975 0 1.8-.825 1.8-1.875-.15-3.525 1.275-6.975 4.2-9.375l.9 1.575c-2.025 1.8-3.375 4.425-3.3 7.35 0 5.25 4.275 9.525 9.45 9.525 5.4.075 9.75-4.275 9.75-9.675-.075-5.175-4.35-9.45-9.6-9.525zm-28.8 15.6c-3.375 0-6-2.625-6-6 0-3.3 2.625-6 6-6 .3 0 .6.075.9.075l-3.075 5.7c-.675 1.2.15 2.625 1.575 2.625h6.075c-.975 2.175-3.075 3.6-5.475 3.6zm34.725-5.625c-.15 3-2.625 5.475-5.625 5.625-3.45.225-6.3-2.55-6.3-6 0-1.575.6-3 1.65-4.125l3.675 6.225c.375.525 1.05.75 1.65.375l1.05-.6c.525-.3.75-1.05.375-1.65l-3.6-6.075c.375-.075.75-.075 1.2-.075 3.375-.075 6.15 2.85 5.925 6.3z"/>
    </symbol>
    <symbol id="icon-user" viewBox="0 0 27 32">
      <path d="M13.474 15.579c4.145 0 7.579-3.375 7.579-7.579 0-4.145-3.434-7.579-7.579-7.579C9.27.421 5.895 3.855 5.895 8c0 4.204 3.375 7.579 7.579 7.579zm5.269 1.895h-1.007c-1.303.651-2.724.947-4.263.947s-3.02-.296-4.322-.947H8.144c-4.382 0-7.934 3.612-7.934 7.993v2.428c0 1.599 1.243 2.842 2.842 2.842h20.842c1.54 0 2.842-1.243 2.842-2.842v-2.428c0-4.382-3.612-7.993-7.993-7.993z"/>
    </symbol>
    <symbol id="icon-Search" viewBox="0 0 32 32">
      <path d="M29.901 26.651 23.98 20.73c-.296-.237-.651-.414-1.007-.414h-.947c1.599-2.072 2.605-4.678 2.605-7.579 0-6.75-5.566-12.316-12.316-12.316C5.506.421-.001 5.987-.001 12.737c0 6.809 5.507 12.316 12.316 12.316 2.842 0 5.447-.947 7.579-2.605v1.007c0 .355.118.711.414 1.006l5.862 5.862c.592.592 1.48.592 2.013 0l1.658-1.658c.592-.533.592-1.421.059-2.013zm-17.585-6.335a7.5558 7.5558 0 0 1-7.579-7.579c0-4.145 3.375-7.579 7.579-7.579 4.145 0 7.579 3.434 7.579 7.579 0 4.204-3.434 7.579-7.579 7.579z"/>
    </symbol>
    <symbol id="icon-map-marker-alt" viewBox="0 0 24 32">
      <path d="M10.605 30.987c.533.829 1.776.829 2.309 0 8.645-12.434 10.243-13.737 10.243-18.355 0-6.276-5.092-11.368-11.368-11.368C5.453 1.264.421 6.356.421 12.632c0 4.618 1.539 5.921 10.184 18.355zm1.184-13.619c-2.664 0-4.737-2.072-4.737-4.737 0-2.605 2.072-4.737 4.737-4.737 2.605 0 4.737 2.132 4.737 4.737 0 2.664-2.132 4.737-4.737 4.737z"/>
    </symbol>
  </defs>
</svg>
